<svg xmlns="http://www.w3.org/2000/svg" xmlns:xlink="http://www.w3.org/1999/xlink" id="processonSvg1000" viewBox="14.0 10.0 690.0 641.0" width="690.0" height="641.0"><defs id="ProcessOnDefs1001"><marker id="ProcessOnMarker1015" markerUnits="userSpaceOnUse" orient="auto" markerWidth="16.23606797749979" markerHeight="10.550836550532098" viewBox="-1.0 -1.3763819204711736 16.23606797749979 10.550836550532098" refX="-1.0" refY="3.8990363547948754"><path id="ProcessOnPath1016" d="M12.0 3.8990363547948754L0.0 7.798072709589751V0.0Z" stroke="#00994d" stroke-width="2.0" fill="#00994d" transform="matrix(1.0,0.0,0.0,1.0,0.0,0.0)"/></marker><marker id="ProcessOnMarker1019" markerUnits="userSpaceOnUse" orient="auto" markerWidth="16.23606797749979" markerHeight="10.550836550532098" viewBox="-1.0 -1.3763819204711736 16.23606797749979 10.550836550532098" refX="-1.0" refY="3.8990363547948754"><path id="ProcessOnPath1020" d="M12.0 3.8990363547948754L0.0 7.798072709589751V0.0Z" stroke="#00994d" stroke-width="2.0" fill="#00994d" transform="matrix(1.0,0.0,0.0,1.0,0.0,0.0)"/></marker><marker id="ProcessOnMarker1088" markerUnits="userSpaceOnUse" orient="auto" markerWidth="16.23606797749979" markerHeight="10.550836550532098" viewBox="-1.0 -1.3763819204711736 16.23606797749979 10.550836550532098" refX="15.23606797749979" refY="3.8990363547948754"><path id="ProcessOnPath1089" d="M12.0 3.8990363547948754L0.0 7.798072709589751V0.0Z" stroke="#323232" stroke-width="2.0" fill="#323232" transform="matrix(-1.0,1.2246467991473532E-16,-1.2246467991473532E-16,-1.0,14.23606797749979,7.798072709589751)"/></marker><marker id="ProcessOnMarker1090" markerUnits="userSpaceOnUse" orient="auto" markerWidth="16.23606797749979" markerHeight="10.550836550532098" viewBox="-1.0 -1.3763819204711736 16.23606797749979 10.550836550532098" refX="-1.0" refY="3.8990363547948754"><path id="ProcessOnPath1091" d="M12.0 3.8990363547948754L0.0 7.798072709589751V0.0Z" stroke="#323232" stroke-width="2.0" fill="#323232" transform="matrix(1.0,0.0,0.0,1.0,0.0,0.0)"/></marker><marker id="ProcessOnMarker1094" markerUnits="userSpaceOnUse" orient="auto" markerWidth="16.23606797749979" markerHeight="10.550836550532098" viewBox="-1.0 -1.3763819204711736 16.23606797749979 10.550836550532098" refX="15.23606797749979" refY="3.8990363547948754"><path id="ProcessOnPath1095" d="M12.0 3.8990363547948754L0.0 7.798072709589751V0.0Z" stroke="#323232" stroke-width="2.0" fill="#323232" transform="matrix(-1.0,1.2246467991473532E-16,-1.2246467991473532E-16,-1.0,14.23606797749979,7.798072709589751)"/></marker><marker id="ProcessOnMarker1096" markerUnits="userSpaceOnUse" orient="auto" markerWidth="16.23606797749979" markerHeight="10.550836550532098" viewBox="-1.0 -1.3763819204711736 16.23606797749979 10.550836550532098" refX="-1.0" refY="3.8990363547948754"><path id="ProcessOnPath1097" d="M12.0 3.8990363547948754L0.0 7.798072709589751V0.0Z" stroke="#323232" stroke-width="2.0" fill="#323232" transform="matrix(1.0,0.0,0.0,1.0,0.0,0.0)"/></marker><marker id="ProcessOnMarker1100" markerUnits="userSpaceOnUse" orient="auto" markerWidth="16.23606797749979" markerHeight="10.550836550532098" viewBox="-1.0 -1.3763819204711736 16.23606797749979 10.550836550532098" refX="15.23606797749979" refY="3.8990363547948754"><path id="ProcessOnPath1101" d="M12.0 3.8990363547948754L0.0 7.798072709589751V0.0Z" stroke="#323232" stroke-width="2.0" fill="#323232" transform="matrix(-1.0,1.2246467991473532E-16,-1.2246467991473532E-16,-1.0,14.23606797749979,7.798072709589751)"/></marker><marker id="ProcessOnMarker1102" markerUnits="userSpaceOnUse" orient="auto" markerWidth="16.23606797749979" markerHeight="10.550836550532098" viewBox="-1.0 -1.3763819204711736 16.23606797749979 10.550836550532098" refX="-1.0" refY="3.8990363547948754"><path id="ProcessOnPath1103" d="M12.0 3.8990363547948754L0.0 7.798072709589751V0.0Z" stroke="#323232" stroke-width="2.0" fill="#323232" transform="matrix(1.0,0.0,0.0,1.0,0.0,0.0)"/></marker><marker id="ProcessOnMarker1110" markerUnits="userSpaceOnUse" orient="auto" markerWidth="16.23606797749979" markerHeight="10.550836550532098" viewBox="-1.0 -1.3763819204711736 16.23606797749979 10.550836550532098" refX="15.23606797749979" refY="3.8990363547948754"><path id="ProcessOnPath1111" d="M12.0 3.8990363547948754L0.0 7.798072709589751V0.0Z" stroke="#323232" stroke-width="2.0" fill="#323232" transform="matrix(-1.0,1.2246467991473532E-16,-1.2246467991473532E-16,-1.0,14.23606797749979,7.798072709589751)"/></marker><marker id="ProcessOnMarker1112" markerUnits="userSpaceOnUse" orient="auto" markerWidth="16.23606797749979" markerHeight="10.550836550532098" viewBox="-1.0 -1.3763819204711736 16.23606797749979 10.550836550532098" refX="-1.0" refY="3.8990363547948754"><path id="ProcessOnPath1113" d="M12.0 3.8990363547948754L0.0 7.798072709589751V0.0Z" stroke="#323232" stroke-width="2.0" fill="#323232" transform="matrix(1.0,0.0,0.0,1.0,0.0,0.0)"/></marker><marker id="ProcessOnMarker1116" markerUnits="userSpaceOnUse" orient="auto" markerWidth="16.23606797749979" markerHeight="10.550836550532098" viewBox="-1.0 -1.3763819204711736 16.23606797749979 10.550836550532098" refX="15.23606797749979" refY="3.8990363547948754"><path id="ProcessOnPath1117" d="M12.0 3.8990363547948754L0.0 7.798072709589751V0.0Z" stroke="#323232" stroke-width="2.0" fill="#323232" transform="matrix(-1.0,1.2246467991473532E-16,-1.2246467991473532E-16,-1.0,14.23606797749979,7.798072709589751)"/></marker><marker id="ProcessOnMarker1118" markerUnits="userSpaceOnUse" orient="auto" markerWidth="16.23606797749979" markerHeight="10.550836550532098" viewBox="-1.0 -1.3763819204711736 16.23606797749979 10.550836550532098" refX="-1.0" refY="3.8990363547948754"><path id="ProcessOnPath1119" d="M12.0 3.8990363547948754L0.0 7.798072709589751V0.0Z" stroke="#323232" stroke-width="2.0" fill="#323232" transform="matrix(1.0,0.0,0.0,1.0,0.0,0.0)"/></marker><marker id="ProcessOnMarker1122" markerUnits="userSpaceOnUse" orient="auto" markerWidth="16.23606797749979" markerHeight="10.550836550532098" viewBox="-1.0 -1.3763819204711736 16.23606797749979 10.550836550532098" refX="-1.0" refY="3.8990363547948754"><path id="ProcessOnPath1123" d="M12.0 3.8990363547948754L0.0 7.798072709589751V0.0Z" stroke="#323232" stroke-width="2.0" fill="#323232" transform="matrix(1.0,0.0,0.0,1.0,0.0,0.0)"/></marker><marker id="ProcessOnMarker1126" markerUnits="userSpaceOnUse" orient="auto" markerWidth="16.23606797749979" markerHeight="10.550836550532098" viewBox="-1.0 -1.3763819204711736 16.23606797749979 10.550836550532098" refX="15.23606797749979" refY="3.8990363547948754"><path id="ProcessOnPath1127" d="M12.0 3.8990363547948754L0.0 7.798072709589751V0.0Z" stroke="#323232" stroke-width="2.0" fill="#323232" transform="matrix(-1.0,1.2246467991473532E-16,-1.2246467991473532E-16,-1.0,14.23606797749979,7.798072709589751)"/></marker><marker id="ProcessOnMarker1128" markerUnits="userSpaceOnUse" orient="auto" markerWidth="16.23606797749979" markerHeight="10.550836550532098" viewBox="-1.0 -1.3763819204711736 16.23606797749979 10.550836550532098" refX="-1.0" refY="3.8990363547948754"><path id="ProcessOnPath1129" d="M12.0 3.8990363547948754L0.0 7.798072709589751V0.0Z" stroke="#323232" stroke-width="2.0" fill="#323232" transform="matrix(1.0,0.0,0.0,1.0,0.0,0.0)"/></marker><marker id="ProcessOnMarker1132" markerUnits="userSpaceOnUse" orient="auto" markerWidth="16.23606797749979" markerHeight="10.550836550532098" viewBox="-1.0 -1.3763819204711736 16.23606797749979 10.550836550532098" refX="15.23606797749979" refY="3.8990363547948754"><path id="ProcessOnPath1133" d="M12.0 3.8990363547948754L0.0 7.798072709589751V0.0Z" stroke="#323232" stroke-width="2.0" fill="#323232" transform="matrix(-1.0,1.2246467991473532E-16,-1.2246467991473532E-16,-1.0,14.23606797749979,7.798072709589751)"/></marker><marker id="ProcessOnMarker1134" markerUnits="userSpaceOnUse" orient="auto" markerWidth="16.23606797749979" markerHeight="10.550836550532098" viewBox="-1.0 -1.3763819204711736 16.23606797749979 10.550836550532098" refX="-1.0" refY="3.8990363547948754"><path id="ProcessOnPath1135" d="M12.0 3.8990363547948754L0.0 7.798072709589751V0.0Z" stroke="#323232" stroke-width="2.0" fill="#323232" transform="matrix(1.0,0.0,0.0,1.0,0.0,0.0)"/></marker><marker id="ProcessOnMarker1142" markerUnits="userSpaceOnUse" orient="auto" markerWidth="16.23606797749979" markerHeight="10.550836550532098" viewBox="-1.0 -1.3763819204711736 16.23606797749979 10.550836550532098" refX="-1.0" refY="3.8990363547948754"><path id="ProcessOnPath1143" d="M12.0 3.8990363547948754L0.0 7.798072709589751V0.0Z" stroke="#323232" stroke-width="2.0" fill="#323232" transform="matrix(1.0,0.0,0.0,1.0,0.0,0.0)"/></marker><marker id="ProcessOnMarker1146" markerUnits="userSpaceOnUse" orient="auto" markerWidth="16.23606797749979" markerHeight="10.550836550532098" viewBox="-1.0 -1.3763819204711736 16.23606797749979 10.550836550532098" refX="-1.0" refY="3.8990363547948754"><path id="ProcessOnPath1147" d="M12.0 3.8990363547948754L0.0 7.798072709589751V0.0Z" stroke="#323232" stroke-width="2.0" fill="#323232" transform="matrix(1.0,0.0,0.0,1.0,0.0,0.0)"/></marker></defs><g id="ProcessOnG1002"><path id="ProcessOnPath1003" d="M14.0 10.0H704.0V651.0H14.0V10.0Z" fill="none"/><g id="ProcessOnG1004"><g id="ProcessOnG1005" transform="matrix(1.0,0.0,0.0,1.0,531.0,378.0)" opacity="1.0"><path id="ProcessOnPath1006" d="M15.0 0.0L88.33333333333333 0.0C103.18181818181819 0.0 103.18181818181819 70.0 88.33333333333333 70.0L15.0 70.0C-5.0 70.0 -5.0 0.0 15.0 0.0ZM88.33333333333333 0.0C73.75 0.0 73.75 70.0 88.33333333333333 70.0C73.75 70.0 73.75 0.0 88.33333333333333 0.0" stroke="#00994d" stroke-width="2.0" stroke-dasharray="none" opacity="1.0" fill="#ffffff"/><g id="ProcessOnG1007" transform="matrix(1.0,0.0,0.0,1.0,0.0,25.0)"><text id="ProcessOnText1008" fill="#000000" font-size="16" x="39.0" y="16.4" font-family="微软雅黑" font-weight="normal" font-style="normal" text-decoration="none" family="微软雅黑" text-anchor="middle" size="16">store</text></g></g><g id="ProcessOnG1009" transform="matrix(1.0,0.0,0.0,1.0,322.33333333333337,378.0)" opacity="1.0"><path id="ProcessOnPath1010" d="M23.333333333333332 0.0L100.0 0.0L76.66666666666667 70.0L0.0 70.0L23.333333333333332 0.0Z" stroke="#00994d" stroke-width="2.0" stroke-dasharray="none" opacity="1.0" fill="#ffffff"/><g id="ProcessOnG1011" transform="matrix(1.0,0.0,0.0,1.0,15.0,25.0)"><text id="ProcessOnText1012" fill="#000000" font-size="16" x="34.0" y="16.4" font-family="微软雅黑" font-weight="normal" font-style="normal" text-decoration="none" family="微软雅黑" text-anchor="middle" size="16">reducers</text></g></g><g id="ProcessOnG1013"><path id="ProcessOnPath1014" d="M410.66666666666674 413.0L470.83333333333337 413.0L470.83333333333337 413.0L515.7639320225002 413.0" stroke="#00994d" stroke-width="2.0" stroke-dasharray="none" fill="none" marker-end="url(#ProcessOnMarker1015)"/></g><g id="ProcessOnG1017"><path id="ProcessOnPath1018" d="M213.66666666666674 413.0L273.83333333333337 413.0L273.83333333333337 413.0L318.7639320225002 413.0" stroke="#00994d" stroke-width="2.0" stroke-dasharray="none" fill="none" marker-end="url(#ProcessOnMarker1019)"/></g><g id="ProcessOnG1021" transform="matrix(1.0,0.0,0.0,1.0,138.66666666666674,102.5)" opacity="1.0"><path id="ProcessOnPath1022" d="M0.0 4.0Q0.0 0.0 4.0 0.0L116.0 0.0Q120.0 0.0 120.0 4.0L120.0 46.0Q120.0 50.0 116.0 50.0L4.0 50.0Q0.0 50.0 0.0 46.0Z" stroke="#cc00cc" stroke-width="2.0" stroke-dasharray="none" opacity="1.0" fill="#ffffff"/><g id="ProcessOnG1023" transform="matrix(1.0,0.0,0.0,1.0,10.0,15.0)"><text id="ProcessOnText1024" fill="#000000" font-size="16" x="49.0" y="16.4" font-family="微软雅黑" font-weight="normal" font-style="normal" text-decoration="none" family="微软雅黑" text-anchor="middle" size="16">REST</text></g></g><g id="ProcessOnG1025" transform="matrix(1.0,0.0,0.0,1.0,337.0,102.5)" opacity="1.0"><path id="ProcessOnPath1026" d="M0.0 4.0Q0.0 0.0 4.0 0.0L116.0 0.0Q120.0 0.0 120.0 4.0L120.0 46.0Q120.0 50.0 116.0 50.0L4.0 50.0Q0.0 50.0 0.0 46.0Z" stroke="#cc00cc" stroke-width="2.0" stroke-dasharray="none" opacity="1.0" fill="#ffffff"/><g id="ProcessOnG1027" transform="matrix(1.0,0.0,0.0,1.0,10.0,15.0)"><text id="ProcessOnText1028" fill="#000000" font-size="16" x="49.0" y="16.4" font-family="微软雅黑" font-weight="normal" font-style="normal" text-decoration="none" family="微软雅黑" text-anchor="middle" size="16">Graphql</text></g></g><g id="ProcessOnG1029" transform="matrix(1.0,0.0,0.0,1.0,521.0,102.5)" opacity="1.0"><path id="ProcessOnPath1030" d="M0.0 4.0Q0.0 0.0 4.0 0.0L116.0 0.0Q120.0 0.0 120.0 4.0L120.0 46.0Q120.0 50.0 116.0 50.0L4.0 50.0Q0.0 50.0 0.0 46.0Z" stroke="#cc00cc" stroke-width="2.0" stroke-dasharray="none" opacity="1.0" fill="#ffffff"/><g id="ProcessOnG1031" transform="matrix(1.0,0.0,0.0,1.0,10.0,15.0)"><text id="ProcessOnText1032" fill="#000000" font-size="16" x="49.0" y="16.4" font-family="微软雅黑" font-weight="normal" font-style="normal" text-decoration="none" family="微软雅黑" text-anchor="middle" size="16">......</text></g></g><g id="ProcessOnG1033" transform="matrix(1.0,0.0,0.0,1.0,108.66666666666674,224.0)" opacity="1.0"><path id="ProcessOnPath1034" d="M0.0 4.0Q0.0 0.0 4.0 0.0L116.0 0.0Q120.0 0.0 120.0 4.0L120.0 46.0Q120.0 50.0 116.0 50.0L4.0 50.0Q0.0 50.0 0.0 46.0Z" stroke="#0000ff" stroke-width="2.0" stroke-dasharray="none" opacity="1.0" fill="#ffffff"/><g id="ProcessOnG1035" transform="matrix(1.0,0.0,0.0,1.0,10.0,15.0)"><text id="ProcessOnText1036" fill="#000000" font-size="16" x="49.0" y="16.4" font-family="微软雅黑" font-weight="normal" font-style="normal" text-decoration="none" family="微软雅黑" text-anchor="middle" size="16">LIST</text></g></g><g id="ProcessOnG1037" transform="matrix(1.0,0.0,0.0,1.0,252.44444444444446,224.0)" opacity="1.0"><path id="ProcessOnPath1038" d="M0.0 4.0Q0.0 0.0 4.0 0.0L116.0 0.0Q120.0 0.0 120.0 4.0L120.0 46.0Q120.0 50.0 116.0 50.0L4.0 50.0Q0.0 50.0 0.0 46.0Z" stroke="#0000ff" stroke-width="2.0" stroke-dasharray="none" opacity="1.0" fill="#ffffff"/><g id="ProcessOnG1039" transform="matrix(1.0,0.0,0.0,1.0,10.0,15.0)"><text id="ProcessOnText1040" fill="#000000" font-size="16" x="49.0" y="16.4" font-family="微软雅黑" font-weight="normal" font-style="normal" text-decoration="none" family="微软雅黑" text-anchor="middle" size="16">CREATE</text></g></g><g id="ProcessOnG1041" transform="matrix(1.0,0.0,0.0,1.0,396.2222222222222,224.0)" opacity="1.0"><path id="ProcessOnPath1042" d="M0.0 4.0Q0.0 0.0 4.0 0.0L116.0 0.0Q120.0 0.0 120.0 4.0L120.0 46.0Q120.0 50.0 116.0 50.0L4.0 50.0Q0.0 50.0 0.0 46.0Z" stroke="#0000ff" stroke-width="2.0" stroke-dasharray="none" opacity="1.0" fill="#ffffff"/><g id="ProcessOnG1043" transform="matrix(1.0,0.0,0.0,1.0,10.0,15.0)"><text id="ProcessOnText1044" fill="#000000" font-size="16" x="49.0" y="16.4" font-family="微软雅黑" font-weight="normal" font-style="normal" text-decoration="none" family="微软雅黑" text-anchor="middle" size="16">DELETE</text></g></g><g id="ProcessOnG1045" transform="matrix(1.0,0.0,0.0,1.0,539.9999999999998,224.0)" opacity="1.0"><path id="ProcessOnPath1046" d="M0.0 4.0Q0.0 0.0 4.0 0.0L116.0 0.0Q120.0 0.0 120.0 4.0L120.0 46.0Q120.0 50.0 116.0 50.0L4.0 50.0Q0.0 50.0 0.0 46.0Z" stroke="#0000ff" stroke-width="2.0" stroke-dasharray="none" opacity="1.0" fill="#ffffff"/><g id="ProcessOnG1047" transform="matrix(1.0,0.0,0.0,1.0,10.0,15.0)"><text id="ProcessOnText1048" fill="#000000" font-size="16" x="49.0" y="16.4" font-family="微软雅黑" font-weight="normal" font-style="normal" text-decoration="none" family="微软雅黑" text-anchor="middle" size="16">UPDATE</text></g></g><g id="ProcessOnG1049" transform="matrix(1.0,0.0,0.0,1.0,34.0,207.0)" opacity="1.0"><path id="ProcessOnPath1050" d="M0.0 0.0L650.0 0.0L650.0 84.0L0.0 84.0Z" stroke="#0000ff" stroke-width="2.0" stroke-dasharray="none" opacity="1.0" fill="none"/><path id="ProcessOnPath1051" d="M0.0 0.0L40.0 0.0L40.0 84.0L0.0 84.0Z" stroke="#0000ff" stroke-width="2.0" stroke-dasharray="none" opacity="1.0" fill="#6666ff"/><g id="ProcessOnG1052" transform="matrix(0.0,-1.0,1.0,0.0,0.0,72.0)"><text id="ProcessOnText1053" fill="#ffffff" font-size="16" x="31.0" y="16.4" font-family="微软雅黑" font-weight="normal" font-style="normal" text-decoration="none" family="微软雅黑" text-anchor="middle" size="16">数据转</text><text id="ProcessOnText1054" fill="#ffffff" font-size="16" x="31.0" y="36.4" font-family="微软雅黑" font-weight="normal" font-style="normal" text-decoration="none" family="微软雅黑" text-anchor="middle" size="16">换</text></g></g><g id="ProcessOnG1055" transform="matrix(1.0,0.0,0.0,1.0,34.0,537.0)" opacity="1.0"><path id="ProcessOnPath1056" d="M0.0 0.0L650.0 0.0L650.0 86.0L0.0 86.0Z" stroke="#994c00" stroke-width="2.0" stroke-dasharray="none" opacity="1.0" fill="none"/><path id="ProcessOnPath1057" d="M0.0 0.0L40.0 0.0L40.0 86.0L0.0 86.0Z" stroke="#994c00" stroke-width="2.0" stroke-dasharray="none" opacity="1.0" fill="#cc6600"/><g id="ProcessOnG1058" transform="matrix(0.0,-1.0,1.0,0.0,10.0,74.0)"><text id="ProcessOnText1059" fill="#ffffff" font-size="16" x="32.0" y="16.4" font-family="微软雅黑" font-weight="normal" font-style="normal" text-decoration="none" family="微软雅黑" text-anchor="middle" size="16">UI</text></g></g><g id="ProcessOnG1060" transform="matrix(1.0,0.0,0.0,1.0,34.0,89.0)" opacity="1.0"><path id="ProcessOnPath1061" d="M0.0 0.0L650.0 0.0L650.0 77.0L0.0 77.0Z" stroke="#cc00cc" stroke-width="2.0" stroke-dasharray="none" opacity="1.0" fill="none"/><path id="ProcessOnPath1062" d="M0.0 0.0L40.0 0.0L40.0 77.0L0.0 77.0Z" stroke="#cc00cc" stroke-width="2.0" stroke-dasharray="none" opacity="1.0" fill="#cc00cc"/><g id="ProcessOnG1063" transform="matrix(0.0,-1.0,1.0,0.0,10.0,65.0)"><text id="ProcessOnText1064" fill="#ffffff" font-size="16" x="27.5" y="16.4" font-family="微软雅黑" font-weight="normal" font-style="normal" text-decoration="none" family="微软雅黑" text-anchor="middle" size="16">API</text></g></g><g id="ProcessOnG1065" transform="matrix(1.0,0.0,0.0,1.0,34.0,362.0)" opacity="1.0"><path id="ProcessOnPath1066" d="M0.0 0.0L650.0 0.0L650.0 102.0L0.0 102.0Z" stroke="#009900" stroke-width="2.0" stroke-dasharray="none" opacity="1.0" fill="none"/><path id="ProcessOnPath1067" d="M0.0 0.0L40.0 0.0L40.0 102.0L0.0 102.0Z" stroke="#009900" stroke-width="2.0" stroke-dasharray="none" opacity="1.0" fill="#00994d"/><g id="ProcessOnG1068" transform="matrix(0.0,-1.0,1.0,0.0,10.0,90.0)"><text id="ProcessOnText1069" fill="#ffffff" font-size="16" x="40.0" y="16.4" font-family="微软雅黑" font-weight="normal" font-style="normal" text-decoration="none" family="微软雅黑" text-anchor="middle" size="16">数据加工</text></g></g><g id="ProcessOnG1070" transform="matrix(1.0,0.0,0.0,1.0,108.66666666666674,555.0)" opacity="1.0"><path id="ProcessOnPath1071" d="M0.0 4.0Q0.0 0.0 4.0 0.0L96.0 0.0Q100.0 0.0 100.0 4.0L100.0 46.0Q100.0 50.0 96.0 50.0L4.0 50.0Q0.0 50.0 0.0 46.0Z" stroke="#994c00" stroke-width="2.0" stroke-dasharray="none" opacity="1.0" fill="#ffffff"/><g id="ProcessOnG1072" transform="matrix(1.0,0.0,0.0,1.0,10.0,15.0)"><text id="ProcessOnText1073" fill="#000000" font-size="16" x="39.0" y="16.4" font-family="微软雅黑" font-weight="normal" font-style="normal" text-decoration="none" family="微软雅黑" text-anchor="middle" size="16">&lt;List /&gt;</text></g></g><g id="ProcessOnG1074" transform="matrix(1.0,0.0,0.0,1.0,239.1111111111112,555.0)" opacity="1.0"><path id="ProcessOnPath1075" d="M0.0 4.0Q0.0 0.0 4.0 0.0L116.0 0.0Q120.0 0.0 120.0 4.0L120.0 46.0Q120.0 50.0 116.0 50.0L4.0 50.0Q0.0 50.0 0.0 46.0Z" stroke="#994c00" stroke-width="2.0" stroke-dasharray="none" opacity="1.0" fill="#ffffff"/><g id="ProcessOnG1076" transform="matrix(1.0,0.0,0.0,1.0,10.0,15.0)"><text id="ProcessOnText1077" fill="#000000" font-size="16" x="49.0" y="16.4" font-family="微软雅黑" font-weight="normal" font-style="normal" text-decoration="none" family="微软雅黑" text-anchor="middle" size="16">&lt;Create /&gt;</text></g></g><g id="ProcessOnG1078" transform="matrix(1.0,0.0,0.0,1.0,389.55555555555566,555.0)" opacity="1.0"><path id="ProcessOnPath1079" d="M0.0 4.0Q0.0 0.0 4.0 0.0L116.0 0.0Q120.0 0.0 120.0 4.0L120.0 46.0Q120.0 50.0 116.0 50.0L4.0 50.0Q0.0 50.0 0.0 46.0Z" stroke="#994c00" stroke-width="2.0" stroke-dasharray="none" opacity="1.0" fill="#ffffff"/><g id="ProcessOnG1080" transform="matrix(1.0,0.0,0.0,1.0,10.0,15.0)"><text id="ProcessOnText1081" fill="#000000" font-size="16" x="49.0" y="16.4" font-family="微软雅黑" font-weight="normal" font-style="normal" text-decoration="none" family="微软雅黑" text-anchor="middle" size="16">&lt;Edit /&gt;</text></g></g><g id="ProcessOnG1082" transform="matrix(1.0,0.0,0.0,1.0,540.0000000000001,555.0)" opacity="1.0"><path id="ProcessOnPath1083" d="M0.0 4.0Q0.0 0.0 4.0 0.0L116.0 0.0Q120.0 0.0 120.0 4.0L120.0 46.0Q120.0 50.0 116.0 50.0L4.0 50.0Q0.0 50.0 0.0 46.0Z" stroke="#994c00" stroke-width="2.0" stroke-dasharray="none" opacity="1.0" fill="#ffffff"/><g id="ProcessOnG1084" transform="matrix(1.0,0.0,0.0,1.0,10.0,15.0)"><text id="ProcessOnText1085" fill="#000000" font-size="16" x="49.0" y="16.4" font-family="微软雅黑" font-weight="normal" font-style="normal" text-decoration="none" family="微软雅黑" text-anchor="middle" size="16">&lt;Show /&gt;</text></g></g><g id="ProcessOnG1086"><path id="ProcessOnPath1087" d="M312.44444444444446 289.2360679774998C312.44444444444446 350.5700776421407 158.66666666666674 311.4299223578593 158.66666666666674 372.7639320225002" stroke="#323232" stroke-width="2.0" stroke-dasharray="none" fill="none" marker-start="url(#ProcessOnMarker1088)" marker-end="url(#ProcessOnMarker1090)"/></g><g id="ProcessOnG1092"><path id="ProcessOnPath1093" d="M456.2222222222222 289.2360679774998C456.2222222222222 401.4584221725502 158.66666666666677 260.5415778274498 158.66666666666674 372.7639320225002" stroke="#323232" stroke-width="2.0" stroke-dasharray="none" fill="none" marker-start="url(#ProcessOnMarker1094)" marker-end="url(#ProcessOnMarker1096)"/></g><g id="ProcessOnG1098"><path id="ProcessOnPath1099" d="M599.9999999999998 289.2360679774998C599.9999999999998 456.3276659692043 158.66666666666677 205.6723340307957 158.66666666666674 372.7639320225002" stroke="#323232" stroke-width="2.0" stroke-dasharray="none" fill="none" marker-start="url(#ProcessOnMarker1100)" marker-end="url(#ProcessOnMarker1102)"/></g><g id="ProcessOnG1104" transform="matrix(1.0,0.0,0.0,1.0,98.66666666666674,388.0)" opacity="1.0"><path id="ProcessOnPath1105" d="M0.0 4.0Q0.0 0.0 4.0 0.0L116.0 0.0Q120.0 0.0 120.0 4.0L120.0 46.0Q120.0 50.0 116.0 50.0L4.0 50.0Q0.0 50.0 0.0 46.0Z" stroke="#00994d" stroke-width="2.0" stroke-dasharray="none" opacity="1.0" fill="#ffffff"/><g id="ProcessOnG1106" transform="matrix(1.0,0.0,0.0,1.0,10.0,15.0)"><text id="ProcessOnText1107" fill="#000000" font-size="16" x="49.0" y="16.4" font-family="微软雅黑" font-weight="normal" font-style="normal" text-decoration="none" family="微软雅黑" text-anchor="middle" size="16">Saga</text></g></g><g id="ProcessOnG1108"><path id="ProcessOnPath1109" d="M168.66666666666674 289.2360679774998C168.66666666666674 319.7751024029439 158.66666666666674 342.2248975970561 158.66666666666674 372.7639320225002" stroke="#323232" stroke-width="2.0" stroke-dasharray="none" fill="none" marker-start="url(#ProcessOnMarker1110)" marker-end="url(#ProcessOnMarker1112)"/></g><g id="ProcessOnG1114"><path id="ProcessOnPath1115" d="M449.55555555555566 539.7639320225002C449.55555555555566 487.20425738994095 581.0 515.795742610059 581.0 463.2360679774998" stroke="#323232" stroke-width="2.0" stroke-dasharray="none" fill="none" marker-start="url(#ProcessOnMarker1116)" marker-end="url(#ProcessOnMarker1118)"/></g><g id="ProcessOnG1120"><path id="ProcessOnPath1121" d="M600.0000000000001 555.0C600.0000000000001 511.5304704419291 581.0 491.4695295580709 581.0 463.2360679774998" stroke="#323232" stroke-width="2.0" stroke-dasharray="none" fill="none" marker-end="url(#ProcessOnMarker1122)"/></g><g id="ProcessOnG1124"><path id="ProcessOnPath1125" d="M581.0 463.2360679774998C581.0 622.2707982167727 158.66666666666677 380.72920178322727 158.66666666666674 539.7639320225002" stroke="#323232" stroke-width="2.0" stroke-dasharray="none" fill="none" marker-start="url(#ProcessOnMarker1126)" marker-end="url(#ProcessOnMarker1128)"/></g><g id="ProcessOnG1130"><path id="ProcessOnPath1131" d="M299.1111111111112 539.7639320225002C299.1111111111112 434.39462985156104 581.0 568.605370148439 581.0 463.2360679774998" stroke="#323232" stroke-width="2.0" stroke-dasharray="none" fill="none" marker-start="url(#ProcessOnMarker1132)" marker-end="url(#ProcessOnMarker1134)"/></g><g id="ProcessOnG1136" transform="matrix(1.0,0.0,0.0,1.0,279.0,30.0)" opacity="1.0"><path id="ProcessOnPath1137" d="M0.0 0.0L160.0 0.0L160.0 40.0L0.0 40.0Z" stroke="none" stroke-width="0.0" stroke-dasharray="none" opacity="1.0" fill="none"/><g id="ProcessOnG1138" transform="matrix(1.0,0.0,0.0,1.0,0.0,6.25)"><text id="ProcessOnText1139" fill="#000000" font-size="22" x="79.0" y="22.55" font-family="微软雅黑" font-weight="bold" font-style="normal" text-decoration="none" family="微软雅黑" text-anchor="middle" size="22">Prophet</text></g></g><g id="ProcessOnG1140"><path id="ProcessOnPath1141" d="M321.0 168.0C321.0 183.6 321.0 191.4 321.0 191.7639320225002" stroke="#323232" stroke-width="2.0" stroke-dasharray="none" fill="none" marker-end="url(#ProcessOnMarker1142)"/></g><g id="ProcessOnG1144"><path id="ProcessOnPath1145" d="M411.0 206.0C411.0 190.0 411.0 182.0 411.0 181.2360679774998" stroke="#323232" stroke-width="2.0" stroke-dasharray="none" fill="none" marker-end="url(#ProcessOnMarker1146)"/></g></g></g></svg>